<svg width="32" height="32" viewBox="0 0 32 32" fill="none" xmlns="http://www.w3.org/2000/svg">
<rect width="32" height="32" rx="8" fill="#D9D9D9"/>
<path d="M20 6V10M12 6V10" stroke="#1A5C42" stroke-width="2" stroke-linecap="round" stroke-linejoin="round"/>
<path d="M25 18V16C25 12.2288 25 10.3431 23.8284 9.17157C22.6569 8 20.7712 8 17 8H15C11.2288 8 9.34315 8 8.17157 9.17157C7 10.3431 7 12.2288 7 16V18C7 21.7712 7 23.6569 8.17157 24.8284C9.34315 26 11.2288 26 15 26H16" stroke="#1A5C42" stroke-width="2" stroke-linecap="round" stroke-linejoin="round"/>
<path d="M7 14H25" stroke="#1A5C42" stroke-width="2" stroke-linecap="round" stroke-linejoin="round"/>
<path d="M22.1047 19.5055L22.7206 20.7475C22.8046 20.9204 23.0286 21.0862 23.2175 21.118L24.3339 21.305C25.0478 21.425 25.2158 21.9472 24.7014 22.4624L23.8335 23.3374C23.6865 23.4856 23.606 23.7715 23.6515 23.9761L23.9 25.0594C24.096 25.9168 23.6445 26.2485 22.8921 25.8004L21.8457 25.1758C21.6567 25.0629 21.3453 25.0629 21.1528 25.1758L20.1064 25.8004C19.3575 26.2485 18.9025 25.9133 19.0985 25.0594L19.347 23.9761C19.3925 23.7715 19.312 23.4856 19.165 23.3374L18.2971 22.4624C17.7861 21.9472 17.9506 21.425 18.6646 21.305L19.7809 21.118C19.9664 21.0862 20.1904 20.9204 20.2744 20.7475L20.8903 19.5055C21.2263 18.8315 21.7722 18.8315 22.1047 19.5055Z" stroke="#1A5C42" stroke-width="2" stroke-linecap="round" stroke-linejoin="round"/>
</svg>
